<?xml version="1.0" encoding="utf-8"?>
<!-- Generator: Adobe Illustrator 17.1.0, SVG Export Plug-In . SVG Version: 6.00 Build 0)  -->
<!DOCTYPE svg PUBLIC "-//W3C//DTD SVG 1.1//EN" "http://www.w3.org/Graphics/SVG/1.1/DTD/svg11.dtd">
<svg version="1.1" id="mail" xmlns="http://www.w3.org/2000/svg" xmlns:xlink="http://www.w3.org/1999/xlink" x="0px" y="0px"
	 viewBox="0 0 124 123.9915" enable-background="new 0 0 124 123.9915" xml:space="preserve">
<path id="mail-back" fill="transparent" d="M62,0C27.7541,0,0,27.7553,0,61.9963s27.7541,61.9951,62,61.9951
	c34.241,0,62-27.7541,62-61.9951S96.241,0,62,0z"/>
<path id="mail-icon" fill="#fff" d="M90.3953,41.0875L62.654,64.8194L33.7674,41.0875H90.3953z M31.0024,43.2636l19.9353,16.3785
	L31.0024,80.9581V43.2636z M33.8921,82.9076l19.706-21.081l7.9912,6.564l1.1124,0.9142l1.0946-0.9405l7.7938-6.6671l19.4106,21.2103
	H33.8921z M92.9976,79.9895L74.2186,59.457l18.779-16.0687V79.9895z"/>
</svg>
