<?xml version="1.0" encoding="utf-8"?>
<!-- Generator: Adobe Illustrator 17.1.0, SVG Export Plug-In . SVG Version: 6.00 Build 0)  -->
<!DOCTYPE svg PUBLIC "-//W3C//DTD SVG 1.1//EN" "http://www.w3.org/Graphics/SVG/1.1/DTD/svg11.dtd">
<svg version="1.1" id="user" xmlns="http://www.w3.org/2000/svg" xmlns:xlink="http://www.w3.org/1999/xlink" x="0px" y="0px"
	 viewBox="0 0 123.9903 123.9951" enable-background="new 0 0 123.9903 123.9951" xml:space="preserve">
<path id="user-back" fill="transparent" d="M61.9951,0C27.7493,0,0,27.7517,0,61.9951c0,34.241,27.7493,62,61.9951,62
	c34.2364,0,61.9951-27.759,61.9951-62C123.9903,27.7517,96.2315,0,61.9951,0z"/>
<path id="user-icon" fill="#fff" d="M92.1711,92.9951h-30.176h-30.176c0,0-0.4916-12.1804,1.142-14.7164
	c1.814-2.8304,7.909-4.5921,13.9459-7.1088c6.0322-2.5121,7.4699-3.3859,7.4699-3.3859l0.0523-5.7935
	c0,0-2.2641-1.7358-2.9609-7.1862c-1.4211,0.4107-2.9014-2.1061-2.9775-3.4382c-0.0819-1.2784,0.1935-4.82,1.9174-4.4638
	c-0.3538-2.6748-0.6066-5.0801-0.4821-6.3432c0.4442-4.6515,5.0242-9.5616,12.0691-9.5616c7.0449,0,11.6202,4.9102,12.0691,9.5616
	c0.1257,1.2631-0.133,3.6685-0.4821,6.3432c1.7238-0.3562,1.9969,3.1853,1.9162,4.4638c-0.0737,1.3321-1.5624,3.8489-2.9775,3.4382
	c-0.6956,5.4504-2.9609,7.1862-2.9609,7.1862l0.0523,5.7935c0,0,1.4389,0.8738,7.465,3.3859
	c6.0381,2.5167,12.1379,4.2785,13.9544,7.1088C92.6579,80.8147,92.1711,92.9951,92.1711,92.9951z"/>
</svg>
